<?xml version="1.0" encoding="UTF-8" standalone="no"?>
<!-- Created with Inkscape (http://www.inkscape.org/) -->

<svg
   xmlns:dc="http://purl.org/dc/elements/1.1/"
   xmlns:cc="http://creativecommons.org/ns#"
   xmlns:rdf="http://www.w3.org/1999/02/22-rdf-syntax-ns#"
   xmlns:svg="http://www.w3.org/2000/svg"
   xmlns="http://www.w3.org/2000/svg"
   xmlns:sodipodi="http://sodipodi.sourceforge.net/DTD/sodipodi-0.dtd"
   xmlns:inkscape="http://www.inkscape.org/namespaces/inkscape"
   width="27.505556in"
   height="29.491194in"
   viewBox="0 0 2475.5 2654.2074"
   id="svg2"
   version="1.1"
   inkscape:version="0.91 r13725"
   sodipodi:docname="gosset_logo_centered_caption_PATH-NOT-TEXT.svg"
   inkscape:export-filename="/tmp/gosset_logo.png"
   inkscape:export-xdpi="90"
   inkscape:export-ydpi="90">
  <defs
     id="defs4" />
  <sodipodi:namedview
     id="base"
     pagecolor="#ffffff"
     bordercolor="#666666"
     borderopacity="1.0"
     inkscape:pageopacity="0"
     inkscape:pageshadow="2"
     inkscape:zoom="0.22814066"
     inkscape:cx="1237.75"
     inkscape:cy="1327.1037"
     inkscape:document-units="px"
     inkscape:current-layer="layer1"
     showgrid="false"
     showborder="false"
     inkscape:window-width="1366"
     inkscape:window-height="753"
     inkscape:window-x="0"
     inkscape:window-y="15"
     inkscape:window-maximized="0"
     units="in"
     fit-margin-top="0.5"
     fit-margin-left="0.5"
     fit-margin-right="0.5"
     fit-margin-bottom="0.5" />
  <metadata
     id="metadata7">
    <rdf:RDF>
      <cc:Work
         rdf:about="">
        <dc:format>image/svg+xml</dc:format>
        <dc:type
           rdf:resource="http://purl.org/dc/dcmitype/StillImage" />
        <dc:title></dc:title>
      </cc:Work>
    </rdf:RDF>
  </metadata>
  <g
     inkscape:groupmode="layer"
     id="layer2"
     inkscape:label="BigBackground"
     transform="translate(575.00024,677.369)" />
  <g
     inkscape:label="Layer 1"
     inkscape:groupmode="layer"
     id="layer1"
     transform="translate(575.00024,677.369)">
    <g
       id="g3415">
      <g
         transform="translate(0,2.2e-5)"
         id="g3772">
        <g
           style="font-style:normal;font-variant:normal;font-weight:normal;font-stretch:normal;font-size:3250px;line-height:125%;font-family:'Bookman URW';-inkscape-font-specification:'Bookman URW';letter-spacing:0px;word-spacing:0px;fill:#000000;fill-opacity:1;stroke:none;stroke-width:1px;stroke-linecap:butt;stroke-linejoin:miter;stroke-opacity:1"
           id="text4189">
          <path
             d="m 1358.2498,-590.11902 -100.75,0 -65,156 c -191.75,-130 -409.50004,-198.25 -633.75004,-198.25 -292.5,0 -588.250004,130 -793,347.75 -191.75,211.250001 -295.75,484.25 -295.75,793 0,663.00002 480.999996,1157.00002 1121.25,1157.00002 282.75,0 490.75004,-74.75 737.75004,-266.5 l 104,224.25 152.75,0 0,-585 c 0,-123.50002 13,-204.75002 39,-266.50002 22.75,-52 61.75,-71.5 172.25,-91 l 58.5,-9.75 0,-100.75 -887.25004,0 0,97.5 c 237.25004,32.5 318.50004,107.25 318.50004,308.75 0,123.50002 -32.5,224.25002 -104,312.00002 -110.5,130 -331.50004,221 -546.00004,221 -468,0 -783.25,-393.25 -783.25,-978.25002 0,-607.749999 289.25,-1007.5 728,-1007.5 175.5,0 341.25,68.25 510.25004,208 110.5,94.25 191.75,188.500001 341.25,403 l 123.5,-35.749999 -198.25,-689.000001 z"
             style="font-style:normal;font-variant:normal;font-weight:normal;font-stretch:normal;font-size:3250px;font-family:'Bookman URW';-inkscape-font-specification:'Bookman URW'"
             id="path3512" />
        </g>
        <g
           style="font-style:normal;font-weight:normal;font-size:144px;line-height:125%;font-family:Sans;letter-spacing:49.030159px;word-spacing:0px;fill:#000000;fill-opacity:1;stroke:none;stroke-width:1px;stroke-linecap:butt;stroke-linejoin:miter;stroke-opacity:1"
           id="text3674">
          <path
             d="m -436.54407,1907.1193 q 0,11.2609 3.1128,14.0075 3.20434,2.6551 15.01464,3.1128 0.91553,0.9156 0.91553,3.2044 0.0915,2.1972 -0.91553,2.9297 -18.76831,-0.3663 -26.00097,-0.3663 -7.87354,0 -26.27564,0.3663 -0.73242,-0.7325 -0.73242,-2.9297 0,-2.2888 0.73242,-3.2044 11.81031,-0.3662 15.01465,-3.1128 3.20435,-2.7466 3.20435,-14.0075 l 0,-72.1436 q 0,-9.1553 -2.01416,-13.8245 -1.92261,-4.7607 -6.86646,-4.7607 l -9.15527,0 q -9.70459,0 -15.93018,4.4861 -6.22558,4.4861 -8.78906,15.3808 -4.11987,0 -6.40869,-0.9155 3.75366,-16.1133 4.66919,-27.1911 0,-0.5494 0.82397,-0.5494 18.95142,1.4649 43.67066,1.4649 l 16.11328,0 q 24.90234,0 42.0227,-1.4649 0.54932,0 0.54932,0.5494 0.18311,12.3596 2.38037,26.6418 -2.10571,0.9155 -6.31714,0.9155 -2.28882,-10.5285 -8.69751,-14.9231 -6.31714,-4.3945 -17.39502,-4.3945 l -4.11987,0 q -4.8523,0 -6.7749,4.7607 -1.83106,4.7608 -1.83106,14.3738 l 0,71.5943 z"
             style="font-style:normal;font-variant:normal;font-weight:normal;font-stretch:normal;font-size:187.5px;font-family:'Linux Libertine';-inkscape-font-specification:'Linux Libertine';letter-spacing:90px"
             id="path3515" />
          <path
             d="m -247.48401,1862.35 q 11.44409,0 14.09912,-2.1973 2.65503,-2.2888 3.02124,-10.6201 0.73242,-0.9155 2.92969,-0.9155 2.28882,0 3.20435,0.9155 -0.36622,8.9722 -0.36622,16.2048 0,6.7749 0.36622,16.4795 -0.91553,0.9155 -3.20435,0.9155 -2.19727,0 -2.92969,-0.9155 -0.36621,-5.0354 -1.19018,-7.2326 -0.73242,-2.1973 -4.48609,-3.8453 -3.75366,-1.7395 -11.44409,-1.7395 l -17.02881,0 0,41.4734 q 0,6.5918 2.28882,9.2469 2.38037,2.5634 8.23975,2.5634 l 21.698,0 q 17.85278,0 24.62768,-24.5361 3.38745,-0.7324 6.50024,0.9155 -2.28881,14.8316 -6.86645,31.3111 -15.01465,-0.3663 -24.07837,-0.3663 l -40.2832,0 q -10.52857,0 -24.35303,0.3663 -0.73242,-0.7325 -0.73242,-2.9297 0,-2.2888 0.73242,-3.2044 10.52856,-0.3662 13.3667,-3.1128 2.92969,-2.7466 2.92969,-14.0075 l 0,-75.1648 q 0,-11.261 -2.92969,-13.916 -2.83814,-2.7466 -13.3667,-3.1128 -0.73242,-0.7325 -0.73242,-3.0213 0,-2.2888 0.73242,-3.2043 15.01465,0.3662 24.16992,0.3662 l 47.79053,0 q 4.85229,0 9.24683,-0.7324 0.73242,0 0.73242,0.5493 1.46484,6.4087 4.11987,27.1911 -3.02124,1.4649 -6.22559,0.9156 -3.57055,-11.261 -7.50732,-15.8387 -3.93677,-4.5776 -13.64136,-4.5776 l -14.09912,0 q -7.32422,0 -9.88769,2.7466 -2.47193,2.655 -2.47193,9.2468 l 0,33.783 17.02881,0 z"
             style="font-style:normal;font-variant:normal;font-weight:normal;font-stretch:normal;font-size:187.5px;font-family:'Linux Libertine';-inkscape-font-specification:'Linux Libertine';letter-spacing:90px"
             id="path3517" />
          <path
             d="m -38.831665,1931.8385 q -28.839111,0 -44.403076,-17.0288 -15.563965,-17.0288 -15.563965,-42.9382 0,-14.6485 5.218506,-27.649 5.218506,-13.0005 14.648437,-21.698 17.39502,-15.9301 40.283203,-15.9301 13.458252,0 26.275635,4.2114 12.90893574,4.1199 14.8315432,4.303 2.8381347,15.5639 4.119873,29.0222 -3.5705566,1.831 -6.22558593,0.9155 -9.52148437,-31.4941 -41.01562527,-31.4941 -16.387939,0 -29.937744,16.6626 -11.169433,13.7329 -11.169433,38.0859 0,21.6064 12.268066,38.8184 12.268066,17.1203 30.48706,17.1203 13.092042,0 23.345948,-4.7607 10.253906,-4.8523 20.1416013,-15.7471 2.8381348,0 4.3029785,2.8381 -19.3176268,25.2686 -47.6074218,25.2686 z"
             style="font-style:normal;font-variant:normal;font-weight:normal;font-stretch:normal;font-size:187.5px;font-family:'Linux Libertine';-inkscape-font-specification:'Linux Libertine';letter-spacing:90px"
             id="path3519" />
          <path
             d="m 221.36487,1907.1193 q 0,11.2609 2.83813,14.0075 2.92969,2.6551 13.45825,3.1128 0.91553,0.9156 0.91553,3.2044 0,2.1972 -0.91553,2.9297 -16.47949,-0.3663 -24.16992,-0.3663 -7.50732,0 -24.44458,0.3663 -0.73242,-0.7325 -0.73242,-2.9297 0,-2.2888 0.73242,-3.2044 10.52857,-0.3662 13.45825,-3.1128 2.92969,-2.7466 2.92969,-14.0075 l 0,-37.262 -64.17846,0 0,37.262 q 0,11.2609 2.92968,14.0075 2.92969,2.6551 13.3667,3.1128 0.73242,0.9156 0.73242,3.2044 0.0916,2.1972 -0.73242,2.9297 -16.47949,-0.3663 -24.16992,-0.3663 -7.87353,0 -24.35303,0.3663 -0.91552,-0.7325 -0.91552,-2.9297 0,-2.2888 0.91552,-3.2044 10.52857,-0.3662 13.3667,-3.1128 2.92969,-2.7466 2.92969,-14.0075 l 0,-75.1648 q 0,-11.261 -2.92969,-13.916 -2.83813,-2.7466 -13.3667,-3.1128 -0.91552,-0.7325 -0.91552,-3.0213 0,-2.2888 0.91552,-3.2043 14.28223,0.3662 24.16992,0.3662 10.16236,0 24.35303,-0.3662 0.73242,0.9155 0.73242,3.2043 0.0916,2.1973 -0.73242,3.0213 -10.52856,0.3662 -13.45825,3.1128 -2.83813,2.655 -2.83813,13.916 l 0,30.0293 64.17846,0 0,-30.0293 q 0,-11.261 -2.92969,-13.916 -2.92968,-2.7466 -13.45825,-3.1128 -0.73242,-0.7325 -0.73242,-3.0213 0,-2.2888 0.73242,-3.2043 16.4795,0.3662 24.26148,0.3662 8.97217,0 24.35302,-0.3662 0.91553,0.9155 0.91553,3.2043 0,2.1973 -0.91553,3.0213 -10.52856,0.3662 -13.45825,3.1128 -2.83813,2.655 -2.83813,13.916 l 0,75.1648 z"
             style="font-style:normal;font-variant:normal;font-weight:normal;font-stretch:normal;font-size:187.5px;font-family:'Linux Libertine';-inkscape-font-specification:'Linux Libertine';letter-spacing:90px"
             id="path3521" />
          <path
             d="m 436.70056,1833.9686 q 0,-6.5918 -0.64087,-9.9792 -0.54931,-3.479 -2.83813,-5.4016 -2.19727,-2.0142 -4.66919,-2.5635 -2.38037,-0.5493 -8.1482,-1.0986 -0.91552,-0.7325 -1.00708,-3.0213 0,-2.2888 1.00708,-3.2043 16.4795,0.3662 20.78248,0.3662 5.58471,0 20.96557,-0.3662 0.73242,0.9155 0.73242,3.2043 0,2.1973 -0.73242,3.0213 -10.52856,1.0986 -13.45825,4.1198 -2.83814,2.9297 -2.83814,14.9231 l 0,92.1021 q 0,5.7678 -4.30297,5.7678 -4.11988,0 -7.50733,-4.4861 l -65.4602,-82.6721 q -4.66919,-6.2256 -6.31714,-6.134 -1.46485,0 -1.5564,9.1552 l 0,57.4036 q 0,6.5918 0.54932,10.0708 0.64087,3.3875 2.83813,5.4016 2.28882,1.9226 4.66919,2.4719 2.47193,0.5494 8.23975,1.1902 0.73242,0.9156 0.73242,3.2044 0.0916,2.1972 -0.73242,2.9297 -15.74707,-0.3663 -20.78247,-0.3663 -4.8523,0 -20.96558,0.3663 -0.91553,-0.7325 -1.00708,-2.9297 0,-2.2888 1.00708,-3.2044 10.52857,-1.0986 13.3667,-4.1198 2.92969,-3.0213 2.92969,-15.0147 l 0,-78.186 q -0.91553,-4.1199 -5.0354,-7.8736 -4.11987,-3.7536 -9.79614,-4.1198 -0.91553,-0.7325 -0.91553,-3.0213 0,-2.2888 0.91553,-3.2043 l 25.3601,0.3662 64.27002,81.5735 q 8.05664,10.3454 8.97217,10.3454 1.28174,0 1.37329,-5.6762 l 0,-61.3404 z"
             style="font-style:normal;font-variant:normal;font-weight:normal;font-stretch:normal;font-size:187.5px;font-family:'Linux Libertine';-inkscape-font-specification:'Linux Libertine';letter-spacing:90px"
             id="path3523" />
          <path
             d="m 615.59827,1813.3693 q -15.38086,0 -26.27564,13.916 -10.89477,13.8244 -10.89477,41.3818 0,25.9094 13.09204,41.1987 13.18359,15.2894 31.40259,15.2894 16.47949,0 26.9165,-14.3738 10.52856,-14.3738 10.52856,-38.9099 0,-27.3743 -12.72583,-42.9383 -12.72583,-15.5639 -32.04345,-15.5639 z m 62.80517,54.9316 q 0,23.4375 -11.62719,39.917 -7.87354,11.261 -20.14161,17.4866 -12.17651,6.134 -27.46582,6.134 -24.71924,0 -41.74804,-16.4795 -16.93726,-16.4795 -16.93726,-43.4875 0,-28.1067 15.56397,-46.6919 15.56396,-18.5852 42.0227,-18.5852 26.09253,0 43.21289,16.7541 17.12036,16.6626 17.12036,44.9524 z"
             style="font-style:normal;font-variant:normal;font-weight:normal;font-stretch:normal;font-size:187.5px;font-family:'Linux Libertine';-inkscape-font-specification:'Linux Libertine';letter-spacing:90px"
             id="path3525" />
          <path
             d="m 802.91882,1930.0074 q -9.70459,0 -24.35302,0.3663 -0.91553,-0.7325 -0.91553,-2.9297 0,-2.2888 0.91553,-3.2044 10.52856,-0.3662 13.3667,-3.1128 2.92968,-2.7466 2.92968,-14.0075 l 0,-75.1648 q 0,-11.261 -2.92968,-13.916 -2.83814,-2.7466 -13.3667,-3.1128 -0.91553,-0.7325 -0.91553,-3.0213 0,-2.2888 0.91553,-3.2043 17.21191,0.3662 24.16992,0.3662 7.50732,0 24.35303,-0.3662 0.73242,0.9155 0.73242,3.2043 0.0915,2.1973 -0.73242,3.0213 -10.52857,0.3662 -13.45826,3.1128 -2.83813,2.655 -2.83813,13.916 l 0,77.6367 q 0,7.1411 2.47192,10.1623 2.56348,2.9297 8.23975,2.9297 l 11.8103,0 q 13.73291,0 20.50781,-6.4087 6.86646,-6.5002 10.0708,-18.1274 3.20435,-0.5493 6.13404,0.9155 -1.83106,16.2964 -4.8523,31.3111 -17.30346,-0.3663 -22.33886,-0.3663 l -39.917,0 z"
             style="font-style:normal;font-variant:normal;font-weight:normal;font-stretch:normal;font-size:187.5px;font-family:'Linux Libertine';-inkscape-font-specification:'Linux Libertine';letter-spacing:90px"
             id="path3527" />
          <path
             d="m 1025.9449,1813.3693 q -15.3808,0 -26.27559,13.916 -10.89477,13.8244 -10.89477,41.3818 0,25.9094 13.09206,41.1987 13.1836,15.2894 31.4026,15.2894 16.4795,0 26.9165,-14.3738 10.5285,-14.3738 10.5285,-38.9099 0,-27.3743 -12.7258,-42.9383 -12.7258,-15.5639 -32.0435,-15.5639 z m 62.8052,54.9316 q 0,23.4375 -11.6272,39.917 -7.8735,11.261 -20.1416,17.4866 -12.1765,6.134 -27.4658,6.134 -24.7192,0 -41.74804,-16.4795 -16.93726,-16.4795 -16.93726,-43.4875 0,-28.1067 15.56397,-46.6919 15.56393,-18.5852 42.02273,-18.5852 26.0925,0 43.2129,16.7541 17.1203,16.6626 17.1203,44.9524 z"
             style="font-style:normal;font-variant:normal;font-weight:normal;font-stretch:normal;font-size:187.5px;font-family:'Linux Libertine';-inkscape-font-specification:'Linux Libertine';letter-spacing:90px"
             id="path3529" />
          <path
             d="m 1256.0206,1806.5944 q 9.1553,0 16.2049,1.7395 7.0495,1.6479 12.9089,3.9367 5.9509,2.1973 9.8877,2.8382 3.5706,15.9301 4.303,28.8391 -3.2044,1.2817 -6.1341,1.0986 -2.1057,-7.1411 -4.5776,-11.9934 -2.3804,-4.8523 -6.7749,-9.7046 -4.3945,-4.9438 -11.5356,-7.4158 -7.1412,-2.5634 -16.9373,-2.5634 -17.0288,0 -30.1208,15.747 -13.0005,15.7471 -13.0005,39.5508 0,12.9089 4.9438,25.6348 5.0354,12.6343 15.6555,21.7895 10.7117,9.0638 24.8108,9.0638 21.6065,0 29.0222,-7.1412 l 0,-28.656 q 0,-5.2185 -3.2959,-6.7749 -3.2043,-1.5564 -11.9934,-2.2888 -0.7324,-0.9155 -0.8239,-3.2959 0,-2.4719 0.8239,-3.3874 16.4795,0.3662 23.1629,0.3662 7.6904,0 16.7541,-0.3662 0.9155,0.9155 0.9155,3.3874 0,2.3804 -0.9155,3.2959 -4.4861,0.3662 -6.5918,2.3804 -2.0141,1.9226 -2.0141,6.6833 l 0,21.698 q 0,2.8382 2.9297,5.2185 -18.219,15.564 -52.2767,15.564 -26.4587,0 -42.7551,-16.8457 -16.2964,-16.8457 -16.2964,-42.572 0,-19.6839 9.43,-35.0647 9.5214,-15.3809 23.8952,-23.0713 14.4654,-7.6904 30.3955,-7.6904 z"
             style="font-style:normal;font-variant:normal;font-weight:normal;font-stretch:normal;font-size:187.5px;font-family:'Linux Libertine';-inkscape-font-specification:'Linux Libertine';letter-spacing:90px"
             id="path3531" />
          <path
             d="m 1439.6791,1907.1193 q 0,11.2609 2.9297,14.0075 2.9297,2.6551 13.3667,3.1128 0.7324,0.9156 0.7324,3.2044 0.091,2.1972 -0.7324,2.9297 -16.8457,-0.3663 -24.17,-0.3663 -7.5073,0 -24.353,0.3663 -0.9155,-0.7325 -0.9155,-2.9297 0,-2.2888 0.9155,-3.2044 10.5286,-0.3662 13.3667,-3.1128 2.9297,-2.7466 2.9297,-14.0075 l 0,-75.1648 q 0,-11.261 -2.9297,-13.916 -2.8381,-2.7466 -13.3667,-3.1128 -0.9155,-0.7325 -0.9155,-3.0213 0,-2.2888 0.9155,-3.2043 17.6697,0.3662 24.1699,0.3662 7.8736,0 24.3531,-0.3662 0.7324,0.9155 0.7324,3.2043 0.091,2.1973 -0.7324,3.0213 -10.5286,0.3662 -13.4583,3.1128 -2.8381,2.655 -2.8381,13.916 l 0,75.1648 z"
             style="font-style:normal;font-variant:normal;font-weight:normal;font-stretch:normal;font-size:187.5px;font-family:'Linux Libertine';-inkscape-font-specification:'Linux Libertine';letter-spacing:90px"
             id="path3533" />
          <path
             d="m 1602.1888,1862.35 q 11.4441,0 14.0992,-2.1973 2.655,-2.2888 3.0212,-10.6201 0.7324,-0.9155 2.9297,-0.9155 2.2888,0 3.2043,0.9155 -0.3662,8.9722 -0.3662,16.2048 0,6.7749 0.3662,16.4795 -0.9155,0.9155 -3.2043,0.9155 -2.1973,0 -2.9297,-0.9155 -0.3662,-5.0354 -1.1902,-7.2326 -0.7324,-2.1973 -4.4861,-3.8453 -3.7536,-1.7395 -11.4441,-1.7395 l -17.0288,0 0,41.4734 q 0,6.5918 2.2889,9.2469 2.3803,2.5634 8.2397,2.5634 l 21.698,0 q 17.8528,0 24.6277,-24.5361 3.3874,-0.7324 6.5002,0.9155 -2.2888,14.8316 -6.8664,31.3111 -15.0147,-0.3663 -24.0784,-0.3663 l -40.2832,0 q -10.5286,0 -24.353,0.3663 -0.7325,-0.7325 -0.7325,-2.9297 0,-2.2888 0.7325,-3.2044 10.5285,-0.3662 13.3667,-3.1128 2.9297,-2.7466 2.9297,-14.0075 l 0,-75.1648 q 0,-11.261 -2.9297,-13.916 -2.8382,-2.7466 -13.3667,-3.1128 -0.7325,-0.7325 -0.7325,-3.0213 0,-2.2888 0.7325,-3.2043 15.0146,0.3662 24.1699,0.3662 l 47.7905,0 q 4.8523,0 9.2468,-0.7324 0.7325,0 0.7325,0.5493 1.4648,6.4087 4.1198,27.1911 -3.0212,1.4649 -6.2255,0.9156 -3.5706,-11.261 -7.5074,-15.8387 -3.9367,-4.5776 -13.6413,-4.5776 l -14.0991,0 q -7.3243,0 -9.8877,2.7466 -2.472,2.655 -2.472,9.2468 l 0,33.783 17.0288,0 z"
             style="font-style:normal;font-variant:normal;font-weight:normal;font-stretch:normal;font-size:187.5px;font-family:'Linux Libertine';-inkscape-font-specification:'Linux Libertine';letter-spacing:90px"
             id="path3535" />
          <path
             d="m 1817.8907,1811.7213 q 2.5635,12.9089 3.3875,24.1699 -2.2888,1.7395 -6.134,1.0987 -1.648,-5.3101 -3.479,-9.0638 -1.7395,-3.7536 -4.8523,-7.4157 -3.1128,-3.7537 -8.0567,-5.5847 -4.8523,-1.9226 -11.3525,-1.9226 -8.1482,0 -14.3738,6.5002 -6.134,6.5002 -6.134,14.4653 0,4.4861 2.1972,8.5144 2.1973,4.0284 4.9439,6.5918 2.7466,2.5635 7.5073,5.2185 4.7608,2.6551 7.5989,3.8452 2.8381,1.0987 7.5989,2.9297 6.5002,2.472 11.3525,5.127 4.8523,2.655 9.5215,6.6833 4.6692,4.0284 7.0495,9.7962 2.472,5.6763 2.472,12.8174 0,8.8806 -4.7608,17.0288 -4.7607,8.1482 -12.8174,13.1836 -9.8876,6.134 -23.1628,6.134 -8.8806,0 -18.6768,-2.1057 -9.7045,-2.1973 -15.0146,-2.1973 -2.8381,-11.8103 -3.7537,-28.4729 2.9297,-1.5564 6.1341,-0.5493 5.8593,26.6419 32.8674,26.6419 11.261,0 17.3035,-5.8594 6.134,-5.951 6.134,-17.2119 0,-5.3101 -1.6479,-9.6131 -1.648,-4.303 -3.7537,-6.8664 -2.1057,-2.6551 -6.134,-5.0354 -4.0284,-2.472 -6.5003,-3.5706 -2.4719,-1.0986 -7.1411,-2.8381 -7.0496,-2.6551 -12.2681,-5.4016 -5.1269,-2.8382 -10.1623,-6.958 -5.0354,-4.2115 -7.6904,-9.8877 -2.6551,-5.7679 -2.6551,-12.8174 0,-14.4654 10.437,-23.4375 10.5286,-9.0637 25.2686,-9.0637 10.7117,0 18.4021,2.3803 7.782,2.3804 10.3454,2.7466 z"
             style="font-style:normal;font-variant:normal;font-weight:normal;font-stretch:normal;font-size:187.5px;font-family:'Linux Libertine';-inkscape-font-specification:'Linux Libertine';letter-spacing:90px"
             id="path3537" />
        </g>
      </g>
      <g
         style="font-style:normal;font-variant:normal;font-weight:normal;font-stretch:normal;font-size:144px;line-height:100%;font-family:'Linux Libertine';-inkscape-font-specification:'Linux Libertine';letter-spacing:0px;word-spacing:0px;fill:#000000;fill-opacity:1;stroke:none;stroke-width:1px;stroke-linecap:butt;stroke-linejoin:miter;stroke-opacity:1"
         id="text4136">
        <path
           d="m 580.13348,-359.6102 q -30.76171,0 -52.55127,27.83203 -21.78955,27.64893 -21.78955,82.76367 0,51.81885 26.18409,82.39746 26.36718,30.57862 62.80517,30.57862 32.95899,0 53.83301,-28.74756 21.05713,-28.74756 21.05713,-77.81982 0,-54.74854 -25.45166,-85.87647 -25.45166,-31.12793 -64.08692,-31.12793 z m 125.61036,109.86328 q 0,46.875 -23.2544,79.83399 -15.74707,22.52197 -40.2832,34.97314 -24.35303,12.26807 -54.93164,12.26807 -49.43848,0 -83.4961,-32.95899 -33.87451,-32.95898 -33.87451,-86.97509 0,-56.21338 31.12793,-93.38379 31.12793,-37.17041 84.04541,-37.17041 52.18506,0 86.42578,33.5083 34.24073,33.32519 34.24073,89.90478 z"
           style="font-style:normal;font-variant:normal;font-weight:normal;font-stretch:normal;font-size:180px;line-height:100%;font-family:'Linux Libertine';-inkscape-font-specification:'Linux Libertine';text-align:start;letter-spacing:0px;word-spacing:0px;text-anchor:start"
           id="path3540" />
        <path
           d="m 644.58661,12.093902 q 5.12695,25.817871 6.7749,48.339844 -4.57764,3.479004 -12.26807,2.197266 -3.29589,-10.620118 -6.958,-18.127442 -3.47901,-7.507324 -9.70459,-14.831543 -6.22559,-7.507324 -16.11328,-11.169433 -9.70459,-3.845215 -22.70508,-3.845215 -16.29639,0 -28.74756,13.000488 -12.26807,13.000488 -12.26807,28.930664 0,8.972168 4.39453,17.028809 4.39454,8.05664 9.8877,13.183593 5.49316,5.126954 15.01465,10.437012 9.52148,5.310055 15.19775,7.690425 5.67627,2.19727 15.19776,5.85938 13.00048,4.94385 22.70507,10.25391 9.70459,5.31005 19.04297,13.3667 9.33838,8.05664 14.09912,19.59228 4.94385,11.35254 4.94385,25.63477 0,17.76123 -9.52148,34.05761 -9.52149,16.29639 -25.63477,26.36719 -19.77539,12.26807 -46.32568,12.26807 -17.76123,0 -37.35352,-4.21143 -19.40918,-4.39453 -30.02929,-4.39453 -5.67627,-23.62061 -7.50733,-56.9458 5.85938,-3.11279 12.26807,-1.09863 11.71875,53.28369 65.73486,53.28369 22.52197,0 34.60693,-11.71875 12.26807,-11.90186 12.26807,-34.42383 0,-10.62012 -3.2959,-19.22607 -3.2959,-8.60596 -7.50732,-13.73291 -4.21143,-5.31006 -12.26807,-10.07081 -8.05664,-4.94384 -13.00049,-7.14111 -4.94384,-2.19726 -14.28222,-5.67627 -14.09912,-5.31006 -24.53614,-10.80322 -10.2539,-5.67627 -20.3247,-13.91602 -10.0708,-8.42285 -15.38086,-19.775387 -5.31006,-11.535645 -5.31006,-25.634766 0,-28.930664 20.87402,-46.875 21.05713,-18.1274411 50.53711,-18.1274411 21.42334,0 36.8042,4.7607422 15.56397,4.7607419 20.69092,5.4931639 z"
           style="font-style:normal;font-variant:normal;font-weight:normal;font-stretch:normal;font-size:375px;line-height:100%;font-family:'Linux Libertine';-inkscape-font-specification:'Linux Libertine';text-align:center;word-spacing:0px;text-anchor:middle;fill:#000000"
           id="path3542" />
        <path
           d="m 644.58661,387.0939 q 5.12695,25.81787 6.7749,48.33985 -4.57764,3.479 -12.26807,2.19726 -3.29589,-10.62012 -6.958,-18.12744 -3.47901,-7.50732 -9.70459,-14.83154 -6.22559,-7.50733 -16.11328,-11.16944 -9.70459,-3.84521 -22.70508,-3.84521 -16.29639,0 -28.74756,13.00049 -12.26807,13.00049 -12.26807,28.93066 0,8.97217 4.39453,17.02881 4.39454,8.05664 9.8877,13.18359 5.49316,5.12696 15.01465,10.43702 9.52148,5.31005 15.19775,7.69042 5.67627,2.19727 15.19776,5.85938 13.00048,4.94385 22.70507,10.25391 9.70459,5.31005 19.04297,13.3667 9.33838,8.05664 14.09912,19.59228 4.94385,11.35254 4.94385,25.63477 0,17.76123 -9.52148,34.05761 -9.52149,16.29639 -25.63477,26.36719 -19.77539,12.26807 -46.32568,12.26807 -17.76123,0 -37.35352,-4.21143 -19.40918,-4.39453 -30.02929,-4.39453 -5.67627,-23.62061 -7.50733,-56.9458 5.85938,-3.11279 12.26807,-1.09863 11.71875,53.28369 65.73486,53.28369 22.52197,0 34.60693,-11.71875 12.26807,-11.90186 12.26807,-34.42383 0,-10.62012 -3.2959,-19.22607 -3.2959,-8.60596 -7.50732,-13.73291 -4.21143,-5.31006 -12.26807,-10.07081 -8.05664,-4.94384 -13.00049,-7.14111 -4.94384,-2.19726 -14.28222,-5.67627 -14.09912,-5.31006 -24.53614,-10.80322 -10.2539,-5.67627 -20.3247,-13.91602 -10.0708,-8.42285 -15.38086,-19.77539 -5.31006,-11.53564 -5.31006,-25.63476 0,-28.93067 20.87402,-46.875 21.05713,-18.12744 50.53711,-18.12744 21.42334,0 36.8042,4.76074 15.56397,4.76074 20.69092,5.49316 z"
           style="font-style:normal;font-variant:normal;font-weight:normal;font-stretch:normal;font-size:375px;line-height:100%;font-family:'Linux Libertine';-inkscape-font-specification:'Linux Libertine';text-align:center;word-spacing:0px;text-anchor:middle;fill:#000000"
           id="path3544" />
        <path
           d="m 588.37323,863.35123 q 22.88818,0 28.19824,-4.39453 5.31006,-4.57764 6.04248,-21.24024 1.46485,-1.83105 5.85938,-1.83105 4.57763,0 6.40869,1.83105 -0.73242,17.94434 -0.73242,32.40967 0,13.5498 0.73242,32.95898 -1.83106,1.83106 -6.40869,1.83106 -4.39453,0 -5.85938,-1.83106 -0.73242,-10.0708 -2.38037,-14.46533 -1.46484,-4.39453 -8.97217,-7.69043 -7.50732,-3.479 -22.88818,-3.479 l -34.05762,0 0,82.94677 q 0,13.1836 4.57764,18.49366 4.76074,5.12695 16.47949,5.12695 l 43.396,0 q 35.70556,0 49.25537,-49.07227 6.7749,-1.46484 13.00049,1.83106 -4.57764,29.66309 -13.73291,62.62207 -30.0293,-0.73242 -48.15674,-0.73242 l -80.56641,0 q -21.05713,0 -48.70605,0.73242 -1.46485,-1.46484 -1.46485,-5.85938 0,-4.57763 1.46485,-6.40869 21.05713,-0.73242 26.7334,-6.22558 5.85937,-5.49317 5.85937,-28.01514 l 0,-150.32959 q 0,-22.52197 -5.85937,-27.83203 -5.67627,-5.49316 -26.7334,-6.22559 -1.46485,-1.46484 -1.46485,-6.04248 0,-4.57763 1.46485,-6.40869 30.02929,0.73242 48.33984,0.73242 l 95.58106,0 q 9.70459,0 18.49365,-1.46484 1.46484,0 1.46484,1.09863 2.92969,12.81739 8.23975,54.38233 -6.04248,2.92968 -12.45117,1.83105 -7.14112,-22.52197 -15.01465,-31.67724 -7.87354,-9.15528 -27.28272,-9.15528 l -28.19824,0 q -14.64844,0 -19.77539,5.49317 -4.94385,5.31005 -4.94385,18.49365 l 0,67.56592 34.05762,0 z"
           style="font-style:normal;font-variant:normal;font-weight:normal;font-stretch:normal;font-size:375px;line-height:100%;font-family:'Linux Libertine';-inkscape-font-specification:'Linux Libertine';text-align:center;word-spacing:0px;text-anchor:middle;fill:#000000"
           id="path3546" />
        <path
           d="m 606.68378,1327.8898 q 0,22.522 6.22558,28.0151 6.40869,5.3101 30.0293,6.2256 1.83105,1.8311 1.83105,6.4087 0.18311,4.3945 -1.83105,5.8594 -37.53662,-0.7324 -52.00195,-0.7324 -15.74707,0 -52.55127,0.7324 -1.46485,-1.4649 -1.46485,-5.8594 0,-4.5776 1.46485,-6.4087 23.6206,-0.7324 30.02929,-6.2256 6.4087,-5.4931 6.4087,-28.0151 l 0,-144.2871 q 0,-18.3106 -4.02833,-27.6489 -3.84521,-9.5215 -13.73291,-9.5215 l -18.31054,0 q -19.40918,0 -31.86035,8.9721 -12.45118,8.9722 -17.57813,30.7618 -8.23974,0 -12.81738,-1.8311 7.50732,-32.2265 9.33838,-54.3823 0,-1.0986 1.64795,-1.0986 37.90283,2.9296 87.34131,2.9296 l 32.22656,0 q 49.80469,0 84.04541,-2.9296 1.09863,0 1.09863,1.0986 0.36621,24.7192 4.76074,53.2837 -4.21142,1.831 -12.63427,1.831 -4.57764,-21.0571 -17.39502,-29.8462 -12.63428,-8.789 -34.79004,-8.789 l -8.23975,0 q -9.70459,0 -13.5498,9.5215 -3.66211,9.5214 -3.66211,28.7475 l 0,143.1885 z"
           style="font-style:normal;font-variant:normal;font-weight:normal;font-stretch:normal;font-size:375px;line-height:100%;font-family:'Linux Libertine';-inkscape-font-specification:'Linux Libertine';text-align:center;word-spacing:0px;text-anchor:middle;fill:#000000"
           id="path3548" />
      </g>
    </g>
  </g>
</svg>
